<?xml version="1.0" standalone="no"?>
<!DOCTYPE svg PUBLIC "-//W3C//DTD SVG 20010904//EN"
 "http://www.w3.org/TR/2001/REC-SVG-20010904/DTD/svg10.dtd">
<svg version="1.0" xmlns="http://www.w3.org/2000/svg"
 width="332.000000pt" height="137.000000pt" viewBox="0 0 332.000000 137.000000"
 preserveAspectRatio="xMidYMid meet">

<g transform="translate(0.000000,137.000000) scale(0.100000,-0.100000)"
fill="#000000" stroke="none">
<path d="M602 965 c4 -4 1 -14 -7 -21 -26 -26 -7 -51 43 -57 26 -3 83 -18 127
-33 90 -30 196 -41 238 -25 24 9 27 16 27 56 0 25 -2 45 -4 45 -2 0 -26 -4
-55 -10 -52 -10 -87 -5 -194 23 -67 18 -185 33 -175 22z"/>
<path d="M2690 941 c-19 -4 -46 -13 -60 -20 -30 -16 -80 -61 -80 -73 0 -4 20
-8 45 -8 34 0 55 7 87 30 34 25 51 30 97 30 57 0 109 -19 124 -46 10 -17 46
-19 51 -1 17 53 15 64 -10 75 -31 15 -207 24 -254 13z"/>
<path d="M1077 934 c-13 -14 7 -34 35 -34 24 0 32 -6 41 -30 l11 -30 98 0 c54
0 98 2 98 5 0 2 -12 25 -27 50 l-28 45 -111 0 c-61 0 -113 -3 -117 -6z"/>
<path d="M1706 896 c-14 -24 -26 -47 -26 -50 0 -3 42 -6 93 -6 l93 0 11 29 c8
22 18 30 39 33 18 2 29 9 29 18 0 12 -20 16 -106 18 l-107 3 -26 -45z"/>
<path d="M1980 921 c0 -15 8 -21 32 -23 24 -2 36 -10 46 -31 13 -27 16 -28 75
-25 53 3 62 6 65 23 6 32 17 37 66 30 29 -5 54 -16 69 -31 19 -20 32 -24 90
-24 58 0 67 2 67 18 0 26 -38 58 -85 71 -22 6 -125 11 -232 11 -184 0 -193 -1
-193 -19z"/>
<path d="M588 828 c5 -7 12 -24 14 -37 3 -22 12 -27 78 -42 41 -9 103 -26 137
-38 66 -22 145 -27 187 -11 23 8 26 15 26 54 l0 44 -77 -5 c-63 -4 -97 0 -178
21 -108 28 -205 35 -187 14z"/>
<path d="M1243 807 c-5 -8 42 -76 61 -89 17 -12 136 -9 136 2 0 6 -12 28 -26
49 -25 39 -27 39 -96 43 -38 2 -72 -1 -75 -5z"/>
<path d="M2406 812 c-47 -2 -59 -7 -63 -22 -6 -21 -70 -50 -113 -50 -25 0 -29
4 -32 33 l-3 32 -68 3 -68 3 3 -48 3 -48 130 -3 c112 -2 138 0 186 18 46 17
109 60 109 74 0 8 -28 11 -84 8z"/>
<path d="M1160 773 c0 -47 12 -66 36 -61 15 2 20 14 22 51 3 46 3 47 -27 47
-29 0 -31 -2 -31 -37z"/>
<path d="M1650 797 c0 -7 -12 -25 -26 -40 -30 -32 -21 -54 18 -43 22 5 68 64
68 86 0 5 -13 10 -30 10 -17 0 -30 -5 -30 -13z"/>
<path d="M1742 763 l3 -48 60 0 60 0 3 48 3 47 -66 0 -66 0 3 -47z"/>
<path d="M2535 783 c3 -16 13 -38 21 -50 14 -22 19 -23 191 -23 152 0 175 2
163 14 -8 8 -44 17 -80 20 -92 10 -146 25 -166 47 -13 15 -31 19 -77 19 l-59
0 7 -27z"/>
<path d="M593 707 c-3 -6 -7 -23 -7 -39 -1 -30 2 -32 69 -43 22 -3 82 -19 133
-36 94 -30 171 -37 216 -19 22 8 26 16 26 53 l0 43 -97 0 c-69 0 -120 6 -173
21 -95 27 -158 34 -167 20z"/>
<path d="M1167 673 c-4 -3 -7 -26 -7 -50 0 -42 1 -44 28 -41 25 3 27 7 30 51
3 44 1 47 -21 47 -13 0 -27 -3 -30 -7z"/>
<path d="M1330 670 c0 -6 11 -28 25 -50 l25 -40 95 0 95 0 30 42 c37 51 37 58
1 58 -23 0 -34 -8 -51 -35 -12 -19 -25 -35 -30 -35 -4 0 -17 16 -29 35 -20 35
-21 35 -91 35 -41 0 -70 -4 -70 -10z"/>
<path d="M1740 630 l0 -51 63 3 62 3 3 48 3 47 -65 0 -66 0 0 -50z"/>
<path d="M2062 633 l3 -48 65 0 65 0 0 45 0 45 -68 3 -68 3 3 -48z"/>
<path d="M2340 671 c0 -5 6 -14 14 -21 8 -6 16 -24 18 -38 3 -26 5 -27 73 -27
l70 0 -2 33 c-2 53 -16 62 -99 62 -41 0 -74 -4 -74 -9z"/>
<path d="M2670 670 c0 -5 12 -10 26 -10 54 0 156 -34 172 -57 12 -20 23 -23
74 -23 l59 0 -3 48 -3 47 -162 3 c-107 2 -163 -1 -163 -8z"/>
<path d="M2547 604 c-11 -11 3 -24 24 -24 12 0 19 5 17 13 -5 14 -31 21 -41
11z"/>
<path d="M593 554 c5 -42 14 -54 45 -54 15 0 70 -14 122 -31 115 -37 185 -46
234 -29 34 11 36 14 36 54 l0 43 -78 -5 c-59 -3 -95 1 -154 17 -42 12 -106 24
-142 28 l-66 6 3 -29z"/>
<path d="M1158 528 c-2 -18 -11 -24 -35 -26 -40 -4 -59 -24 -39 -41 9 -8 48
-11 112 -9 91 3 99 5 99 23 0 15 -8 21 -35 25 -27 4 -36 10 -38 28 -3 17 -10
22 -32 22 -22 0 -29 -5 -32 -22z"/>
<path d="M1410 538 c0 -22 53 -88 71 -88 19 0 72 77 63 92 -8 13 -134 10 -134
-4z"/>
<path d="M1737 543 c-4 -3 -7 -15 -7 -25 0 -13 -8 -18 -29 -18 -35 0 -62 -27
-40 -41 16 -10 248 -13 273 -3 35 13 11 44 -34 44 -11 0 -20 10 -24 25 -6 23
-11 25 -70 25 -34 0 -66 -3 -69 -7z"/>
<path d="M2067 544 c-4 -4 -7 -15 -7 -25 0 -10 -9 -25 -21 -33 -41 -28 -12
-36 135 -36 153 0 216 12 276 52 54 37 50 48 -20 48 -50 0 -67 -5 -94 -25 -25
-19 -45 -25 -84 -25 -45 0 -51 3 -54 23 -3 20 -9 22 -63 25 -34 2 -64 0 -68
-4z"/>
<path d="M2540 531 c-19 -37 -11 -49 43 -68 77 -27 235 -23 302 6 54 24 97 59
89 72 -3 5 -26 9 -50 9 -34 0 -50 -5 -63 -21 -36 -45 -189 -47 -248 -3 -38 29
-59 30 -73 5z"/>
<path d="M1806 381 c-29 -6 -30 -7 -27 -66 1 -33 5 -62 8 -65 2 -3 274 -6 603
-8 l598 -3 4 66 c1 36 2 70 0 75 -4 11 -1136 12 -1186 1z m452 -38 c2 -13 -2
-23 -8 -23 -8 0 -10 -9 -6 -23 5 -22 3 -24 -39 -24 -49 0 -51 4 -39 66 6 30 9
32 48 29 34 -2 42 -7 44 -25z m162 8 c5 -11 10 -33 10 -49 0 -29 -1 -29 -54
-29 l-54 0 11 26 c31 71 65 92 87 52z m194 13 c21 -8 20 -52 -1 -76 -10 -11
-30 -18 -55 -18 -34 0 -38 3 -38 24 0 49 17 76 49 76 16 0 36 -3 45 -6z m131
-31 c-10 -56 -13 -63 -30 -63 -13 0 -15 7 -10 38 10 55 13 62 30 62 13 0 15
-7 10 -37z m183 25 c32 -32 -2 -88 -54 -88 -45 0 -66 23 -53 58 6 14 16 30 22
34 19 12 72 9 85 -4z"/>
<path d="M2205 340 c-3 -5 -1 -10 4 -10 6 0 11 5 11 10 0 6 -2 10 -4 10 -3 0
-8 -4 -11 -10z"/>
<path d="M2563 325 c-3 -9 -3 -18 0 -21 9 -9 27 6 27 22 0 19 -19 18 -27 -1z"/>
<path d="M2860 319 c0 -14 5 -19 17 -17 26 5 29 38 4 38 -15 0 -21 -6 -21 -21z"/>
</g>
</svg>
